<svg width="26" height="26" fill="none" xmlns="http://www.w3.org/2000/svg"><path d="M18.255 0H7.745C3.476 0 0 3.475 0 7.746v10.508C0 22.526 3.475 26 7.746 26h10.508C22.526 26 26 22.525 26 18.255V7.745C26 3.476 22.525 0 18.255 0zm5.13 18.255a5.13 5.13 0 01-5.13 5.13H7.745a5.13 5.13 0 01-5.13-5.13V7.745a5.13 5.13 0 015.13-5.13h10.51a5.13 5.13 0 015.13 5.13v10.51z" fill="url(#paint0_linear_311_3)"/><path d="M13 6c-3.86 0-7 2.916-7 6.5S9.14 19 13 19s7-2.916 7-6.5S16.86 6 13 6zm0 10.472c-2.362 0-4.277-1.778-4.277-3.972S10.638 8.528 13 8.528s4.277 1.778 4.277 3.972-1.915 3.972-4.277 3.972z" fill="url(#paint1_linear_311_3)"/><defs><linearGradient id="paint0_linear_311_3" x1="13" y1="25.924" x2="13" y2=".202" gradientUnits="userSpaceOnUse"><stop stop-color="#fff"/><stop offset=".3" stop-color="#fff"/><stop offset=".6" stop-color="#fff"/><stop offset=".839" stop-color="#fff"/><stop offset="1" stop-color="#fff"/></linearGradient><linearGradient id="paint1_linear_311_3" x1="13" y1="24.993" x2="13" y2=".129" gradientUnits="userSpaceOnUse"><stop stop-color="#fff"/><stop offset=".3" stop-color="#fff"/><stop offset=".6" stop-color="#fff"/><stop offset="1" stop-color="#fff"/></linearGradient></defs></svg>