<svg width="193" height="24" fill="none" xmlns="http://www.w3.org/2000/svg"><g clip-path="url(#clip0_209_2)" fill="#000"><path d="M19.634 3.933l-.146.066a9.427 9.427 0 00-3.013-1.838 10.522 10.522 0 00-3.867-.691c-1.267-.015-2.526.2-3.716.633a8.135 8.135 0 00-2.914 1.83 8.273 8.273 0 00-1.89 2.943 10.931 10.931 0 00-.674 3.965 15.7 15.7 0 00.641 4.553 10.617 10.617 0 001.915 3.672 8.876 8.876 0 003.188 2.459 10.42 10.42 0 004.445.885 8.913 8.913 0 003.596-.757 9.28 9.28 0 001.59-.91 8.301 8.301 0 001.36-1.242l.176.111-1.286 3.262c-.86.328-1.751.57-2.66.72-.97.166-1.95.249-2.934.249a16.506 16.506 0 01-5.444-.857 12.55 12.55 0 01-4.254-2.422 10.89 10.89 0 01-2.763-3.766A11.73 11.73 0 010 11.913a11.53 11.53 0 01.417-2.988c.253-.977.633-1.918 1.128-2.799A11.435 11.435 0 013.41 3.684 11.91 11.91 0 015.94 1.76C6.927 1.2 7.982.773 9.08.489a14.254 14.254 0 013.704-.456 17.07 17.07 0 015.756.944l1.095 2.956zm20.132 2.752c0-.906 0-1.697-.034-2.376-.033-.678-.054-1.241-.095-1.759a17.932 17.932 0 00-.146-1.237 6.884 6.884 0 00-.179-.828v-.07h2.864V.48c-.063.223-.125.5-.184.827-.07.411-.119.826-.145 1.242a46.66 46.66 0 00-.096 1.76 64.296 64.296 0 00-.042 2.375v8.63a10.396 10.396 0 01-.657 3.904 6.966 6.966 0 01-1.836 2.645 7.217 7.217 0 01-2.813 1.503 12.935 12.935 0 01-3.584.472 14.07 14.07 0 01-3.625-.447 7.837 7.837 0 01-2.913-1.45 6.777 6.777 0 01-1.952-2.59 9.529 9.529 0 01-.708-3.875V6.685c0-.906 0-1.697-.033-2.376-.034-.678-.054-1.241-.096-1.759a8.857 8.857 0 00-.183-1.237c-.075-.344-.12-.609-.187-.828v-.07h3.858V.48a8.99 8.99 0 00-.183.827c-.059.327-.113.741-.154 1.242a33.837 33.837 0 00-.096 1.76c-.02.674-.033 1.469-.033 2.375v8.97a7.539 7.539 0 00.57 3.142 5.174 5.174 0 001.507 1.966 5.5 5.5 0 002.118 1.018c1.596.381 3.26.381 4.857 0a5.425 5.425 0 002.114-1.018 5.19 5.19 0 001.495-1.966 7.469 7.469 0 00.574-3.142l.017-8.97zM56.26 4.06h-.354a4.437 4.437 0 00-.416-.827 3.878 3.878 0 00-3.384-1.821 3.785 3.785 0 00-1.402.24 2.873 2.873 0 00-1.02.67 2.936 2.936 0 00-.62 1.023 3.985 3.985 0 00-.208 1.312c.009.78.243 1.542.674 2.194a12.66 12.66 0 001.631 2.07 38.489 38.489 0 002.115 2.048 26.97 26.97 0 012.122 2.128 12.423 12.423 0 011.624 2.31c.43.799.654 1.692.649 2.6a6.365 6.365 0 01-.362 2.069 5.376 5.376 0 01-1.12 1.896 5.57 5.57 0 01-1.948 1.35 7 7 0 01-2.83.52 8.787 8.787 0 01-1.744-.17 11.326 11.326 0 01-1.527-.413 10.23 10.23 0 01-1.249-.534 8.979 8.979 0 01-.907-.53l.37-3.535h.416a5.077 5.077 0 001.57 2.633c.397.348.85.628 1.34.828a4.32 4.32 0 001.664.31 4.116 4.116 0 001.474-.248 3.303 3.303 0 001.115-.687c.312-.294.556-.651.716-1.048.17-.422.255-.873.25-1.328a4.666 4.666 0 00-.37-1.863 7.337 7.337 0 00-.974-1.623 13.694 13.694 0 00-1.366-1.486A91.3 91.3 0 0050.62 12.7a40.82 40.82 0 01-1.565-1.495 12.138 12.138 0 01-1.369-1.655 8.478 8.478 0 01-.97-1.871 6.222 6.222 0 01-.37-2.198 5.167 5.167 0 01.491-2.281 5.463 5.463 0 011.303-1.734 5.795 5.795 0 011.806-1.08A6.018 6.018 0 0152.07 0c.495-.004.99.039 1.477.129.415.07.825.165 1.228.285.358.12.674.236.94.352l.658.29-.112 3.005zm11.433-2.238a31.614 31.614 0 00-3.425.17 45.386 45.386 0 00-2.635.36c-.861.157-1.627.335-2.302.525l.467-2.591c.129 0 .32.025.578.033l.862.033c.316 0 .649 0 .995.025h13.871c.346 0 .679 0 .995-.025l.862-.033c.258 0 .45-.02.578-.033l.458 2.612c-.686-.19-1.46-.369-2.314-.526a43.9 43.9 0 00-2.639-.36 31.611 31.611 0 00-3.425-.17v15.254c0 .906 0 1.697.042 2.371.041.675.058 1.242.095 1.751.027.416.075.831.146 1.242.058.331.12.609.183.828v.062h-3.841v-.062c.073-.273.131-.549.174-.828.054-.331.104-.74.146-1.242.042-.5.075-1.072.096-1.75.02-.68.033-1.466.033-2.372V1.822zM91.812.033a13.765 13.765 0 014.957.87 11.766 11.766 0 013.954 2.446 11.171 11.171 0 012.589 3.783c.628 1.547.938 3.204.911 4.872a12.678 12.678 0 01-.353 2.993c-.23.972-.578 1.913-1.037 2.802a11.742 11.742 0 01-1.665 2.422 10.752 10.752 0 01-2.276 1.92c-.877.542-1.825.96-2.818 1.242a11.79 11.79 0 01-3.33.456 13.984 13.984 0 01-4.96-.857 11.54 11.54 0 01-3.93-2.422 10.992 10.992 0 01-2.588-3.767 12.333 12.333 0 01-.937-4.88c-.001-1.006.117-2.01.354-2.988.229-.972.577-1.912 1.036-2.799a11.592 11.592 0 011.665-2.442 10.64 10.64 0 012.264-1.924 11.026 11.026 0 012.83-1.271 11.714 11.714 0 013.334-.456zm.916 22.353a8.133 8.133 0 003.263-.638 7.135 7.135 0 002.547-1.854 8.584 8.584 0 001.665-2.968c.414-1.284.615-2.626.595-3.974a17.317 17.317 0 00-.57-4.553 11.019 11.019 0 00-1.694-3.647 8.02 8.02 0 00-2.805-2.409 8.395 8.395 0 00-3.913-.873 8.222 8.222 0 00-3.267.633 7.156 7.156 0 00-2.547 1.83 8.522 8.522 0 00-1.665 2.943 12.278 12.278 0 00-.595 3.965 17.61 17.61 0 00.566 4.553c.324 1.315.888 2.56 1.665 3.672a8.112 8.112 0 002.83 2.459 8.32 8.32 0 003.925.877v-.016zm66.393 1.357v-.062a1.09 1.09 0 00.05-.24v-.29a5.224 5.224 0 00-.137-1.092 9.135 9.135 0 00-.525-1.499l-1.944-4.346a62.328 62.328 0 00-2.397-.033h-5.669c-.786 0-1.498 0-2.126.033l-1.853 4.218c-.158.414-.333.828-.511 1.296-.18.453-.274.936-.275 1.423-.002.116.009.231.033.344a.682.682 0 00.063.186v.062h-3.28v-.062c.28-.332.523-.695.724-1.08a33.61 33.61 0 00.949-1.941L151.434.332h1.29l8.74 19.541c.204.46.416.907.637 1.337.221.43.416.828.62 1.16.204.33.362.628.512.86.15.232.254.385.308.451v.062h-4.42zm-10.405-8.936h5.644c.579 0 1.104-.009 1.573-.025l-4.529-10.195-4.44 10.22h1.752zM165.505.75l.691.033.562.02h.466c.204 0 .546 0 1.02-.029l1.632-.066 1.906-.062c.662-.02 1.278-.033 1.856-.033a16.73 16.73 0 014.441.575 9.833 9.833 0 013.696 1.888 9.107 9.107 0 012.526 3.44 13.03 13.03 0 01.933 5.228 14.985 14.985 0 01-.491 3.998 11.354 11.354 0 01-1.374 3.134 9.628 9.628 0 01-2.114 2.326 11.615 11.615 0 01-2.701 1.598 14.36 14.36 0 01-3.176.91 20.507 20.507 0 01-3.492.29c-.416 0-.945 0-1.548-.041l-1.828-.087-1.727-.087a24.688 24.688 0 00-1.248-.042v-.062c.062-.223.124-.5.183-.828.058-.327.108-.74.154-1.241.046-.501.075-1.072.095-1.751a76.91 76.91 0 00.034-2.372V7.083c0-.907 0-1.706-.034-2.393-.033-.687-.054-1.279-.095-1.776-.042-.496-.096-.91-.154-1.241a7.735 7.735 0 00-.183-.828l-.03-.095zm3.522 1.44c-.021 1.192-.046 2.347-.067 3.469 0 .48 0 .968-.025 1.47-.025.5 0 .993 0 1.481v5.157c0 1.016.013 2.055.037 3.118 0 1.063.042 2.09.075 3.07.034.982.071 1.797.113 2.447.15.021.349.046.603.07.254.025.516.05.795.063.279.012.554.033.833.041.278.008.491 0 .674 0 .772 0 1.544-.052 2.31-.153a9.95 9.95 0 002.281-.567 8.417 8.417 0 002.081-1.143 6.999 6.999 0 001.706-1.879 9.644 9.644 0 001.149-2.773c.298-1.256.437-2.543.416-3.833a14.683 14.683 0 00-.595-4.355 8.838 8.838 0 00-1.744-3.224 7.449 7.449 0 00-2.847-1.991 10.455 10.455 0 00-3.9-.679c-.291 0-.616 0-.982.025l-1.124.066c-.358 0-.695.037-1.011.062-.316.025-.574.046-.778.058zm20.127 21.491a6.67 6.67 0 00.179-.828c.054-.33.1-.74.146-1.242.046-.5.075-1.072.096-1.75.02-.68.033-1.466.033-2.372V7.083c0-.907 0-1.698-.033-2.376-.034-.68-.055-1.242-.096-1.76a15.528 15.528 0 00-.146-1.241 6.696 6.696 0 00-.179-.828v-.05H193v.066c-.078.273-.14.549-.187.828-.059.331-.104.741-.146 1.242-.042.5-.067 1.08-.096 1.76a57.49 57.49 0 00-.037 2.375v10.394c0 .908.012 1.698.037 2.372.029.679.059 1.242.096 1.75.037.51.087.903.146 1.243.047.279.109.555.187.827v.062h-3.846v-.066zM132.642 2.484l-.258-1.656h-.537l-10.405 12.004L111.703.828h-2.044a145.314 145.314 0 01-.416 3.403c-.104.782-.229 1.684-.362 2.649-.133.964-.275 1.966-.417 3.005-.141 1.039-.295 2.094-.449 3.167-.154 1.072-.312 2.119-.466 3.141a499.104 499.104 0 01-.45 2.935c-.145.931-.274 1.772-.395 2.52a5.246 5.246 0 01-.354 1.272 4.99 4.99 0 01-.416.757v.066h3.213c-.029-.174-.062-.368-.096-.592-.033-.223-.041-.414-.062-.703-.021-.29-.033-.6-.033-.96 0-.29.025-.733.079-1.338.054-.604.129-1.295.216-2.07.088-.773.196-1.655.316-2.55.121-.893.234-1.824.354-2.743.278-2.14.604-4.474.978-7.004l10.547 11.313 11.196-14.612z"/><path d="M136.101 23.18a7.506 7.506 0 01-.25-.749c-.088-.302-.171-.67-.258-1.097a18.05 18.05 0 01-.237-1.535l-2.427-15.767-11.483 15.589-9.485-10.626-.337 2.62 9.843 12.037 10.172-14.028.832 11.627c.02.169.036.326.05.472v.414a5.32 5.32 0 01-.075.96 2.39 2.39 0 01-.15.576v.066h4.05v-.066a3.626 3.626 0 01-.245-.493z"/></g><defs><clipPath id="clip0_209_2"><path fill="#fff" d="M0 0h193v24H0z"/></clipPath></defs></svg>