<svg width="26" height="25" fill="none" xmlns="http://www.w3.org/2000/svg"><path d="M24.076.002c-.337.017-.653.122-.934.239h-.004c-.286.121-1.641.732-3.7 1.656l-7.385 3.33C6.755 7.614 1.547 9.964 1.547 9.964l.063-.025s-.36.126-.735.402a2.1 2.1 0 00-.586.606 1.88 1.88 0 00-.278 1.188c.09.774.56 1.238.895 1.493.34.26.664.38.664.38h.008l4.884 1.762c.219.752 1.489 5.22 1.794 6.248.18.615.355 1 .574 1.293.105.15.23.276.379.376a1.083 1.083 0 00.246.113l-.05-.012c.015.004.027.016.038.02.04.013.067.017.117.026.774.25 1.395-.264 1.395-.264l.036-.03 2.883-2.81 4.833 3.97.11.05c1.008.472 2.027.209 2.567-.256a2.795 2.795 0 00.753-1.066l.036-.096L25.908 2.85c.105-.506.133-.98.015-1.44-.117-.46-.417-.89-.78-1.12a1.776 1.776 0 00-1.067-.289zm-.102 2.196c-.004.067.008.059-.02.188V2.4l-3.7 20.269c-.015.029-.043.092-.117.154-.078.067-.14.11-.465-.029l-5.911-4.852-3.571 3.484.75-5.127 9.658-9.637c.399-.397.266-.481.266-.481.027-.485-.602-.142-.602-.142L8.084 14.114l-.004-.02-5.838-2.104v-.005c-.003 0-.011-.004-.015-.004a.259.259 0 00.031-.012l.031-.017.032-.013 10.51-4.738c2.653-1.197 5.325-2.401 7.38-3.33 2.056-.924 3.575-1.602 3.661-1.64.082-.033.043-.033.102-.033z" fill="#fff"/></svg>