<svg width="27" height="27" fill="none" xmlns="http://www.w3.org/2000/svg"><path d="M7.496 22.109l.94.55a10.339 10.339 0 005.23 1.408 10.4 10.4 0 10-10.4-10.4c0 1.866.49 3.656 1.41 5.23l.548.942-.848 3.121 3.12-.851zM.672 26.666l1.757-6.458a12.94 12.94 0 01-1.762-6.541c0-7.18 5.82-13 13-13s13 5.82 13 13-5.82 13-13 13a12.94 12.94 0 01-6.54-1.762L.673 26.666zm8.303-19.1a4.58 4.58 0 01.524-.004c.07.005.14.013.21.02.207.024.435.15.511.324.388.879.765 1.764 1.129 2.652.08.198.032.451-.121.698a5.86 5.86 0 01-.342.484c-.147.188-.463.534-.463.534s-.129.154-.08.345c.02.072.079.178.133.266l.077.124c.333.555.78 1.118 1.326 1.648.156.15.308.306.472.45a7.813 7.813 0 002.041 1.3l.007.003c.11.048.166.074.327.142.08.034.164.064.248.086a.456.456 0 00.478-.169c.94-1.14 1.027-1.214 1.034-1.214v.003a.626.626 0 01.492-.165.68.68 0 01.23.052c.69.316 1.82.808 1.82.808l.757.34c.127.06.243.205.247.344a2.51 2.51 0 01-.017.485c-.042.337-.143.74-.245.953-.07.144-.162.277-.273.392a3.093 3.093 0 01-.429.375c-.053.04-.107.079-.162.117a6.547 6.547 0 01-.498.286c-.335.178-.705.28-1.083.299-.24.013-.481.031-.723.018-.01 0-.738-.113-.738-.113a12.283 12.283 0 01-4.992-2.66c-.294-.259-.566-.537-.844-.814-1.157-1.15-2.03-2.392-2.561-3.564a4.511 4.511 0 01-.43-1.838 3.548 3.548 0 01.733-2.184c.095-.123.184-.25.34-.397.164-.156.268-.24.381-.296.15-.076.315-.12.483-.13h.001z" fill="#fff"/></svg>